HIERARCHY
ROOT Hips
{
  OFFSET -19.7551 93.6229 7.75578
  CHANNELS 6 Xposition Yposition Zposition Zrotation Xrotation Yrotation
  JOINT Spine
  {
    OFFSET 0 8.59463 0
    CHANNELS 6 Xposition Yposition Zposition Zrotation Xrotation Yrotation
    JOINT Spine1
    {
      OFFSET 0 8.59463 0
      CHANNELS 6 Xposition Yposition Zposition Zrotation Xrotation Yrotation
      JOINT Spine2
      {
        OFFSET 0 8.59463 0
        CHANNELS 6 Xposition Yposition Zposition Zrotation Xrotation Yrotation
        JOINT Spine3
        {
          OFFSET 0 8.59463 0
          CHANNELS 6 Xposition Yposition Zposition Zrotation Xrotation Yrotation
          JOINT Neck
          {
            OFFSET 0 18.2636 0
            CHANNELS 6 Xposition Yposition Zposition Zrotation Xrotation Yrotation
            JOINT Head
            {
              OFFSET 0 11.6027 0
              CHANNELS 6 Xposition Yposition Zposition Zrotation Xrotation Yrotation
              End Site
              {
                OFFSET 0 21.7552 0
              }
            }
          }
          JOINT LeftShoulder
          {
            OFFSET 5 17 0
            CHANNELS 6 Xposition Yposition Zposition Zrotation Xrotation Yrotation
            JOINT LeftShoulder2
            {
              OFFSET 7.25 0 0
              CHANNELS 6 Xposition Yposition Zposition Zrotation Xrotation Yrotation
              JOINT LeftArm
              {
                OFFSET 7.25 0 0
                CHANNELS 6 Xposition Yposition Zposition Zrotation Xrotation Yrotation
                JOINT LeftForeArm
                {
                  OFFSET 0 -30.1395 -2
                  CHANNELS 6 Xposition Yposition Zposition Zrotation Xrotation Yrotation
                  JOINT LeftHand
                  {
                    OFFSET 0 -23.8605 2
                    CHANNELS 6 Xposition Yposition Zposition Zrotation Xrotation Yrotation
                    JOINT LeftHandThumb1
                    {
                      OFFSET -0.5 -1.5 2.65
                      CHANNELS 6 Xposition Yposition Zposition Zrotation Xrotation Yrotation
                      JOINT LeftHandThumb2
                      {
                        OFFSET 0 -3.8 3.7
                        CHANNELS 6 Xposition Yposition Zposition Zrotation Xrotation Yrotation
                        JOINT LeftHandThumb3
                        {
                          OFFSET 0 -3 2.7
                          CHANNELS 6 Xposition Yposition Zposition Zrotation Xrotation Yrotation
                          End Site
                          {
                            OFFSET 0 -2.3 1.8
                          }
                        }
                      }
                    }
                    JOINT LeftHandIndex
                    {
                      OFFSET 0 -1.9 1.6
                      CHANNELS 6 Xposition Yposition Zposition Zrotation Xrotation Yrotation
                      JOINT LeftHandIndex1
                      {
                        OFFSET 0 -8.3 1.9
                        CHANNELS 6 Xposition Yposition Zposition Zrotation Xrotation Yrotation
                        JOINT LeftHandIndex2
                        {
                          OFFSET 0 -4.5 0
                          CHANNELS 6 Xposition Yposition Zposition Zrotation Xrotation Yrotation
                          JOINT LeftHandIndex3
                          {
                            OFFSET 0 -3.4 0
                            CHANNELS 6 Xposition Yposition Zposition Zrotation Xrotation Yrotation
                            End Site
                            {
                              OFFSET 0 -2.6 0
                            }
                          }
                        }
                      }
                    }
                    JOINT LeftHandMiddle
                    {
                      OFFSET -0.25 -2.2 0.4
                      CHANNELS 6 Xposition Yposition Zposition Zrotation Xrotation Yrotation
                      JOINT LeftHandMiddle1
                      {
                        OFFSET 0 -8.3 1
                        CHANNELS 6 Xposition Yposition Zposition Zrotation Xrotation Yrotation
                        JOINT LeftHandMiddle2
                        {
                          OFFSET 0 -4.65 0
                          CHANNELS 6 Xposition Yposition Zposition Zrotation Xrotation Yrotation
                          JOINT LeftHandMiddle3
                          {
                            OFFSET 0 -3.3 0
                            CHANNELS 6 Xposition Yposition Zposition Zrotation Xrotation Yrotation
                            End Site
                            {
                              OFFSET 0 -2.7 0
                            }
                          }
                        }
                      }
                    }
                    JOINT LeftHandRing
                    {
                      OFFSET -0.5 -2.15 -0.8
                      CHANNELS 6 Xposition Yposition Zposition Zrotation Xrotation Yrotation
                      JOINT LeftHandRing1
                      {
                        OFFSET 0 -7.75 -0.2
                        CHANNELS 6 Xposition Yposition Zposition Zrotation Xrotation Yrotation
                        JOINT LeftHandRing2
                        {
                          OFFSET 0 -3.8 0
                          CHANNELS 6 Xposition Yposition Zposition Zrotation Xrotation Yrotation
                          JOINT LeftHandRing3
                          {
                            OFFSET 0 -3.4 0
                            CHANNELS 6 Xposition Yposition Zposition Zrotation Xrotation Yrotation
                            End Site
                            {
                              OFFSET 0 -2.6 0
                            }
                          }
                        }
                      }
                    }
                    JOINT LeftHandPinky
                    {
                      OFFSET -0.75 -1.75 -1.85
                      CHANNELS 6 Xposition Yposition Zposition Zrotation Xrotation Yrotation
                      JOINT LeftHandPinky1
                      {
                        OFFSET 0 -7.15 -1
                        CHANNELS 6 Xposition Yposition Zposition Zrotation Xrotation Yrotation
                        JOINT LeftHandPinky2
                        {
                          OFFSET 0 -3 0
                          CHANNELS 6 Xposition Yposition Zposition Zrotation Xrotation Yrotation
                          JOINT LeftHandPinky3
                          {
                            OFFSET 0 -2.35 0
                            CHANNELS 6 Xposition Yposition Zposition Zrotation Xrotation Yrotation
                            End Site
                            {
                              OFFSET 0 -2.1 0
                            }
                          }
                        }
                      }
                    }
                  }
                }
              }
            }
          }
          JOINT RightShoulder
          {
            OFFSET -5 17 0
            CHANNELS 6 Xposition Yposition Zposition Zrotation Xrotation Yrotation
            JOINT RightShoulder2
            {
              OFFSET -7.25 0 0
              CHANNELS 6 Xposition Yposition Zposition Zrotation Xrotation Yrotation
              JOINT RightArm
              {
                OFFSET -7.25 0 0
                CHANNELS 6 Xposition Yposition Zposition Zrotation Xrotation Yrotation
                JOINT RightForeArm
                {
                  OFFSET 0 -30.1395 -2
                  CHANNELS 6 Xposition Yposition Zposition Zrotation Xrotation Yrotation
                  JOINT RightHand
                  {
                    OFFSET 0 -23.8605 2
                    CHANNELS 6 Xposition Yposition Zposition Zrotation Xrotation Yrotation
                    JOINT RightHandThumb1
                    {
                      OFFSET 0.5 -1.5 2.65
                      CHANNELS 6 Xposition Yposition Zposition Zrotation Xrotation Yrotation
                      JOINT RightHandThumb2
                      {
                        OFFSET 0 -3.8 3.7
                        CHANNELS 6 Xposition Yposition Zposition Zrotation Xrotation Yrotation
                        JOINT RightHandThumb3
                        {
                          OFFSET 0 -3 2.7
                          CHANNELS 6 Xposition Yposition Zposition Zrotation Xrotation Yrotation
                          End Site
                          {
                            OFFSET 0 -2.3 1.8
                          }
                        }
                      }
                    }
                    JOINT RightHandIndex
                    {
                      OFFSET 0 -1.9 1.6
                      CHANNELS 6 Xposition Yposition Zposition Zrotation Xrotation Yrotation
                      JOINT RightHandIndex1
                      {
                        OFFSET 0 -8.3 1.9
                        CHANNELS 6 Xposition Yposition Zposition Zrotation Xrotation Yrotation
                        JOINT RightHandIndex2
                        {
                          OFFSET 0 -4.5 0
                          CHANNELS 6 Xposition Yposition Zposition Zrotation Xrotation Yrotation
                          JOINT RightHandIndex3
                          {
                            OFFSET 0 -3.4 0
                            CHANNELS 6 Xposition Yposition Zposition Zrotation Xrotation Yrotation
                            End Site
                            {
                              OFFSET 0 -2.6 0
                            }
                          }
                        }
                      }
                    }
                    JOINT RightHandMiddle
                    {
                      OFFSET 0.25 -2.2 0.4
                      CHANNELS 6 Xposition Yposition Zposition Zrotation Xrotation Yrotation
                      JOINT RightHandMiddle1
                      {
                        OFFSET 0 -8.3 1
                        CHANNELS 6 Xposition Yposition Zposition Zrotation Xrotation Yrotation
                        JOINT RightHandMiddle2
                        {
                          OFFSET 0 -4.65 0
                          CHANNELS 6 Xposition Yposition Zposition Zrotation Xrotation Yrotation
                          JOINT RightHandMiddle3
                          {
                            OFFSET 0 -3.3 0
                            CHANNELS 6 Xposition Yposition Zposition Zrotation Xrotation Yrotation
                            End Site
                            {
                              OFFSET 0 -2.7 0
                            }
                          }
                        }
                      }
                    }
                    JOINT RightHandRing
                    {
                      OFFSET 0.5 -2.15 -0.8
                      CHANNELS 6 Xposition Yposition Zposition Zrotation Xrotation Yrotation
                      JOINT RightHandRing1
                      {
                        OFFSET 0 -7.75 -0.2
                        CHANNELS 6 Xposition Yposition Zposition Zrotation Xrotation Yrotation
                        JOINT RightHandRing2
                        {
                          OFFSET 0 -3.8 0
                          CHANNELS 6 Xposition Yposition Zposition Zrotation Xrotation Yrotation
                          JOINT RightHandRing3
                          {
                            OFFSET 0 -3.4 0
                            CHANNELS 6 Xposition Yposition Zposition Zrotation Xrotation Yrotation
                            End Site
                            {
                              OFFSET 0 -2.6 0
                            }
                          }
                        }
                      }
                    }
                    JOINT RightHandPinky
                    {
                      OFFSET 0.75 -1.75 -1.85
                      CHANNELS 6 Xposition Yposition Zposition Zrotation Xrotation Yrotation
                      JOINT RightHandPinky1
                      {
                        OFFSET 0 -7.15 -1
                        CHANNELS 6 Xposition Yposition Zposition Zrotation Xrotation Yrotation
                        JOINT RightHandPinky2
                        {
                          OFFSET 0 -3 0
                          CHANNELS 6 Xposition Yposition Zposition Zrotation Xrotation Yrotation
                          JOINT RightHandPinky3
                          {
                            OFFSET 0 -2.35 0
                            CHANNELS 6 Xposition Yposition Zposition Zrotation Xrotation Yrotation
                            End Site
                            {
                              OFFSET 0 -2.1 0
                            }
                          }
                        }
                      }
                    }
                  }
                }
              }
            }
          }
        }
      }
    }
  }
  JOINT LeftUpLeg
  {
    OFFSET 12.5 0 0
    CHANNELS 6 Xposition Yposition Zposition Zrotation Xrotation Yrotation
    JOINT LeftLeg
    {
      OFFSET 0 -45.2616 -1
      CHANNELS 6 Xposition Yposition Zposition Zrotation Xrotation Yrotation
      JOINT LeftFoot
      {
        OFFSET 0 -41.2384 -2
        CHANNELS 6 Xposition Yposition Zposition Zrotation Xrotation Yrotation
        JOINT LeftToeBase
        {
          OFFSET 0 -7.5 12.5
          CHANNELS 6 Xposition Yposition Zposition Zrotation Xrotation Yrotation
          JOINT LeftFootToe
          {
            OFFSET 0 0 4
            CHANNELS 6 Xposition Yposition Zposition Zrotation Xrotation Yrotation
            End Site
            {
              OFFSET 0 0 0
            }
          }
        }
      }
    }
  }
  JOINT RightUpLeg
  {
    OFFSET -12.5 0 0
    CHANNELS 6 Xposition Yposition Zposition Zrotation Xrotation Yrotation
    JOINT RightLeg
    {
      OFFSET 0 -45.2616 -1
      CHANNELS 6 Xposition Yposition Zposition Zrotation Xrotation Yrotation
      JOINT RightFoot
      {
        OFFSET 0 -41.2384 -2
        CHANNELS 6 Xposition Yposition Zposition Zrotation Xrotation Yrotation
        JOINT RightToeBase
        {
          OFFSET 0 -7.5 12.5
          CHANNELS 6 Xposition Yposition Zposition Zrotation Xrotation Yrotation
          JOINT RightFootToe
          {
            OFFSET 0 0 4
            CHANNELS 6 Xposition Yposition Zposition Zrotation Xrotation Yrotation
            End Site
            {
              OFFSET 0 0 0
            }
          }
        }
      }
    }
  }
}
MOTION
Frames:	3
Frame Time:	0.0111111
0 94 0 -0.00567627 -0.00326538 8.92505e-16 1.73472e-18 8.59463 0 8.27368e-19 1.55301e-18 1.57407e-22 -1.73472e-18 8.59463 8.67362e-19 8.27368e-19 1.55301e-18 4.9016e-23 1.73472e-18 8.59463 0 8.27368e-19 1.55301e-18 2.18103e-23 -1.73472e-18 8.59463 8.67362e-19 5.08653e-20 7.76503e-19 4.33798e-23 1.73472e-18 18.2636 0 8.27368e-19 2.32951e-18 7.39798e-24 0 11.6027 0 8.27368e-19 1.55301e-18 3.33621e-23 5 17 0 8.27368e-19 2.32951e-18 7.39798e-24 7.25 0 1.73472e-18 5.08653e-20 7.76503e-19 1.76949e-23 7.25 2.84217e-14 1.73472e-18 90.0002 3.61969e-10 3.3852e-10 0 -30.1395 -2 2.43243e-19 5.47993e-23 -1.55301e-18 -2.84217e-14 -23.8605 2 2.43243e-19 -5.92424e-24 -1.55301e-18 -0.5 -1.5 2.65 2.43243e-19 -3.55455e-23 -1.55301e-18 0 -3.8 3.7 2.43243e-19 4.44318e-23 -1.55301e-18 0 -3 2.7 2.43243e-19 1.18485e-23 -1.55301e-18 0 -1.9 1.6 2.43243e-19 -3.55455e-23 -1.55301e-18 -2.84217e-14 -8.3 1.9 -7.35172e-13 -4.07385e-10 -0.00691567 -2.84217e-14 -4.5 4.44089e-16 -1.30575e-18 -7.10909e-23 -0 -2.84217e-14 -3.4 0 -5.2925e-19 -1.48106e-23 -0 -0.25 -2.2 0.4 2.43243e-19 -3.55455e-23 -1.55301e-18 0 -8.3 1 2.43243e-19 4.44318e-23 -1.55301e-18 0 -4.65 0 -4.82967e-05 -3.12323e-09 1.47398e-10 0 -3.3 0 -1.32043e-19 5.70209e-23 1.16475e-18 -0.5 -2.15 -0.8 2.43243e-19 -3.55455e-23 -1.55301e-18 -2.84217e-14 -7.75 -0.2 2.43243e-19 4.44318e-23 -1.55301e-18 -2.84217e-14 -3.8 0 2.43243e-19 1.18485e-23 -1.55301e-18 2.84217e-14 -3.4 1.11022e-16 2.43243e-19 -8.88637e-24 -1.55301e-18 -0.75 -1.75 -1.85 2.43243e-19 -3.55455e-23 -1.55301e-18 0 -7.15 -1 -0.00502737 3.41775e-11 -3.07752e-10 5.68434e-14 -3 0 -0.000174992 -5.95168e-09 -2.57474e-13 -2.84217e-14 -2.35 0 -3.57814e-15 -4.7394e-23 7.76503e-19 -5 17 0 8.27368e-19 2.32951e-18 7.39798e-24 -7.25 -2.84217e-14 -1.73472e-18 5.08653e-20 7.76503e-19 1.76949e-23 -7.25 0 -1.73472e-18 -90.0002 1.53778e-11 -1.90342e-10 2.84217e-14 -30.1395 -2 1.27225e-14 -7.91372e-19 -0 2.84217e-14 -23.8605 2 1.27217e-14 -7.91369e-19 -0 0.5 -1.5 2.65 1.27217e-14 -7.91412e-19 -0 0 -3.8 3.7 1.27217e-14 -7.9134e-19 -0 0 -3 2.7 1.27217e-14 -7.91313e-19 -0 0 -1.9 1.6 1.27217e-14 -7.91412e-19 -0 2.84217e-14 -8.3 1.9 1.27217e-14 -7.9134e-19 -0 -2.84217e-14 -4.5 0 0.00166248 -6.35051e-11 -3.29972e-12 2.84217e-14 -3.4 0 0.00162658 -6.35051e-11 -3.29972e-12 0.25 -2.2 0.4 1.27217e-14 -7.91412e-19 -0 -2.84217e-14 -8.3 1 1.27217e-14 -7.9134e-19 -0 0 -4.65 0 1.27217e-14 -7.91313e-19 -0 2.84217e-14 -3.3 2.22045e-16 1.27217e-14 -7.91405e-19 -0 0.5 -2.15 -0.8 1.27217e-14 -7.91412e-19 -0 0 -7.75 -0.2 1.27217e-14 -7.9134e-19 -0 2.84217e-14 -3.8 1.11022e-16 0.000415352 -2.5887e-08 5.10927e-14 0 -3.4 0 -2.11206e-18 -5.92424e-24 -0 0.75 -1.75 -1.85 1.27217e-14 -7.91412e-19 -0 5.68434e-14 -7.15 -1 5.60849e-14 -3.10998e-10 0.000430028 0 -3 0 0.00029944 -2.0753e-08 1.77656e-14 0 -2.35 0 -1.81046e-18 -9.775e-23 -3.88251e-19 12.5 0 8.67362e-19 -4.41933e-16 4.65125e-16 1.42489e-11 -1.77636e-15 -45.2616 -1 4.43434e-16 -4.62019e-16 -1.42489e-11 0 -41.2384 -2 8.27368e-19 1.55301e-18 -6.52405e-25 -1.77636e-15 -7.5 12.5 8.27368e-19 1.55301e-18 1.41216e-23 0 0 4 5.08653e-20 7.76503e-19 3.1142e-23 -12.5 0 -8.67362e-19 -2.86544e-17 -2.33454e-07 9.40492e-13 -1.77636e-15 -45.2616 -1 3.80746e-16 -1.93433e-07 -1.22439e-11 -1.77636e-15 -41.2384 -2 -3.51013e-16 4.26887e-07 1.13034e-11 0 -7.5 12.5 1.60388e-18 7.76503e-19 2.28647e-23 0 -1.0842e-19 4 8.2738e-19 0 1.23514e-24 
-19.1696 93.8729 8.63579 -0.00314966 0.00206857 129.308 0 8.59463 0 0.337943 -1.1079 -9.64693 8.88178e-16 8.59463 -3.55271e-15 -0.252507 0.523908 -1.28838 -8.88178e-16 8.59463 0 -0.127729 0.261254 -0.644486 -8.88178e-16 8.59463 0 -0.12772 0.261234 -0.644443 1.77636e-15 18.2636 3.55271e-15 0.343787 0.0310665 -0.657476 -8.88178e-16 11.6027 -3.55271e-15 -2.7249 -2.40137 -1.58484 5 17 0 2.7123 0.680135 -1.01267 7.25 -2.84217e-14 3.55271e-15 -1.33442 -1.79911 -4.86053 7.25 0 0 0.456896 -1.68805 -0.748 3.55271e-15 -30.1395 -2 -4.79535 -5.71248 -11.5553 -1.77636e-15 -23.8605 2 -2.05046 2.50629 -5.72916 -0.5 -1.5 2.65 5.87486 -23.278 -1.86504 0 -3.8 3.7 -0.036763 22.8127 -1.40175e-15 3.55271e-15 -3 2.7 -1.48964e-15 39.3853 3.60072e-15 -8.88178e-16 -1.9 1.6 -0 -1.9133e-15 -0 -1.77636e-15 -8.3 1.9 -0.337427 -0.630417 -0.00691609 0 -4.5 -8.88178e-16 -7.95139e-16 3.72721e-16 -7.95139e-16 1.77636e-15 -3.4 -8.88178e-16 -7.95139e-16 3.47873e-16 -3.97569e-16 -0.25 -2.2 0.4 -0 -1.9133e-15 -0 -8.88178e-16 -8.3 1 -0.254926 -0.442377 3.97581e-16 0 -4.65 1.77636e-15 -4.82967e-05 -3.12323e-09 1.47398e-10 0 -3.3 -1.77636e-15 0 1.93815e-15 -0 -0.5 -2.15 -0.8 -0 -1.9133e-15 -0 1.77636e-15 -7.75 -0.2 -0.087943 -0.0688087 3.9757e-16 -1.77636e-15 -3.8 -1.77636e-15 0 2.5345e-15 -0 0 -3.4 -1.77636e-15 0 2.5345e-15 -0 -0.75 -1.75 -1.85 -0 -1.9133e-15 -0 2.66454e-15 -7.15 -1 -0.00502737 0.116479 -3.07753e-10 -8.88178e-16 -3 0 -0.000174992 -5.95168e-09 -2.57227e-13 8.88178e-16 -2.35 1.77636e-15 -3.57812e-15 1.16786e-15 -3.97569e-16 -5 17 3.55271e-15 -1.17122 1.46193 -2.14182 -7.25 2.84217e-14 0 -1.59165 0.331657 0.400088 -7.25 0 0 5.02249 -2.52617 2.299 -1.77636e-15 -30.1395 -2 -0.855095 -2.22391 11.4532 0 -23.8605 2 1.01839 -4.65488 1.75392 0.5 -1.5 2.65 -0.562926 -28.9063 -2.93169 1.77636e-15 -3.8 3.7 1.09708e-14 28.8397 3.63088e-15 0 -3 2.7 1.75237e-14 51.4476 -1.02067e-14 0 -1.9 1.6 1.19271e-14 -2.38542e-15 -6.36111e-15 1.77636e-15 -8.3 1.9 7.45499 1.01799 -0.0905824 -3.55271e-15 -4.5 -1.77636e-15 0.00166248 -6.35061e-11 -3.30142e-12 -1.77636e-15 -3.4 0 0.00162658 -6.3503e-11 -3.29824e-12 0.25 -2.2 0.4 1.19271e-14 -2.38542e-15 -6.36111e-15 0 -8.3 1 5.76419 0.768376 -0.0571021 1.77636e-15 -4.65 1.77636e-15 4.27564 0 -3.18055e-15 0 -3.3 -1.77636e-15 4.03818 1.59028e-15 3.18055e-15 0.5 -2.15 -0.8 1.19271e-14 -2.38542e-15 -6.36111e-15 1.77636e-15 -7.75 -0.2 2.41481 0.291397 -0.013016 0 -3.8 1.77636e-15 1.87593 -2.5887e-08 4.77083e-14 0 -3.4 1.77636e-15 1.82846 7.95139e-16 -6.36111e-15 0.75 -1.75 -1.85 1.19271e-14 -2.38542e-15 -6.36111e-15 0 -7.15 -1 0.736612 0.0431532 0.000430028 1.77636e-15 -3 0 2.493 -2.0753e-08 1.90833e-14 3.55271e-15 -2.35 0 2.41016 2.38542e-15 -3.18055e-15 12.5 1.42109e-14 -3.55271e-15 3.62971 1.99065 44.9616 -7.10543e-15 -45.2616 -1 -0.00237115 3.8376 -0.425771 7.10543e-15 -41.2384 -2 -3.94608 -2.70307 -0.915135 0 -7.5 12.5 -2.91188e-19 1.55301e-18 -0 0 -2.77556e-17 4 1.16387 -1.07923 -57.8117 -12.5 1.42109e-14 -3.55271e-15 -0.96224 -3.5084 25.8102 -8.88178e-16 -45.2616 -1 -0.00428085 3.83935 -0.562732 0 -41.2384 -2 2.4184 -1.07405 -11.8525 8.88178e-16 -7.5 12.5 2.32951e-18 -7.76503e-19 6.36111e-15 8.88178e-16 8.67362e-19 4 -2.96183 -0.69084 -26.8245 
-19.17 93.8728 8.63537 -0.00315009 0.00206909 129.32 1.77636e-15 8.59463 0 0.337337 -1.10349 -9.645 -8.88178e-16 8.59463 3.55271e-15 -0.2526 0.52195 -1.29162 0 8.59463 0 -0.127774 0.260274 -0.646107 8.88178e-16 8.59463 0 -0.127764 0.260253 -0.646073 8.88178e-16 18.2636 -3.55271e-15 0.346808 0.0340059 -0.656424 0 11.6027 0 -2.726 -2.40448 -1.58274 5 17 0 2.71322 0.683331 -1.01954 7.25 0 0 -1.33274 -1.80041 -4.85085 7.25 -2.84217e-14 0 0.455352 -1.67878 -0.725564 0 -30.1395 -2 -4.8006 -5.71854 -11.5605 0 -23.8605 2 -2.05652 2.50149 -5.726 -0.5 -1.5 2.65 5.87047 -23.2804 -1.87805 0 -3.8 3.7 -0.0367667 22.8133 3.23482e-16 0 -3 2.7 4.42783e-15 39.3887 -8.23062e-15 -8.88178e-16 -1.9 1.6 3.97569e-16 -1.16786e-15 -0 8.88178e-16 -8.3 1.9 -0.337369 -0.627613 -0.00691609 0 -4.5 0 -3.97569e-16 1.2424e-15 -7.95139e-16 -8.88178e-16 -3.4 -8.88178e-16 3.97569e-16 1.19271e-15 -7.95139e-16 -0.25 -2.2 0.4 3.97569e-16 -1.16786e-15 -0 -8.88178e-16 -8.3 1 -0.254877 -0.440564 -0 0 -4.65 3.55271e-15 -4.82967e-05 -3.12323e-09 1.47398e-10 1.77636e-15 -3.3 -1.77636e-15 -3.97569e-16 8.94531e-16 -3.97569e-16 -0.5 -2.15 -0.8 3.97569e-16 -1.16786e-15 -0 0 -7.75 -0.2 -0.0879331 -0.0690037 -3.9757e-16 -8.88178e-16 -3.8 -1.77636e-15 -3.97569e-16 2.48481e-16 -0 1.77636e-15 -3.4 1.77636e-15 -0 -5.96354e-16 -0 -0.75 -1.75 -1.85 3.97569e-16 -1.16786e-15 -0 8.88178e-16 -7.15 -1 -0.00502737 0.115294 -3.07753e-10 8.88178e-16 -3 -3.55271e-15 -0.000174992 -5.95168e-09 -2.5842e-13 -8.88178e-16 -2.35 0 -3.18055e-15 1.81391e-15 3.97569e-16 -5 17 -3.55271e-15 -1.16943 1.46643 -2.12994 -7.25 0 0 -1.59206 0.332676 0.398376 -7.25 2.84217e-14 -3.55271e-15 4.86553 -2.52599 2.27801 -3.55271e-15 -30.1395 -2 -0.853686 -2.21891 11.441 -1.77636e-15 -23.8605 2 1.01771 -4.65213 1.76272 0.5 -1.5 2.65 -0.560024 -28.9009 -2.92121 3.55271e-15 -3.8 3.7 1.7332e-14 28.8389 3.63086e-15 -8.88178e-16 -3 2.7 1.90986e-14 51.4471 -5.10328e-15 0 -1.9 1.6 1.27222e-14 0 6.36111e-15 1.77636e-15 -8.3 1.9 7.45485 1.01868 -0.0906105 3.55271e-15 -4.5 1.77636e-15 0.00166248 -6.35061e-11 -3.30142e-12 -1.77636e-15 -3.4 1.77636e-15 0.00162658 -6.35061e-11 -3.28551e-12 0.25 -2.2 0.4 1.27222e-14 0 6.36111e-15 0 -8.3 1 5.76345 0.769048 -0.0571204 -1.77636e-15 -4.65 -1.77636e-15 4.27466 0 -6.36111e-15 -1.77636e-15 -3.3 0 4.0373 3.18055e-15 9.54166e-15 0.5 -2.15 -0.8 1.27222e-14 0 6.36111e-15 0 -7.75 -0.2 2.41295 0.292004 -0.0130194 0 -3.8 -3.55271e-15 1.87792 -2.5887e-08 5.08889e-14 1.77636e-15 -3.4 1.77636e-15 1.83035 -7.95139e-16 3.18055e-15 0.75 -1.75 -1.85 1.27222e-14 0 6.36111e-15 0 -7.15 -1 0.734185 0.0437484 0.000430028 0 -3 1.77636e-15 2.49779 -2.0753e-08 2.8625e-14 -1.77636e-15 -2.35 -1.77636e-15 2.41469 -2.38542e-15 -0 12.5 0 0 3.63084 1.98863 44.9647 -7.10543e-15 -45.2616 -1 -0.00221504 3.83808 -0.424666 -7.10543e-15 -41.2384 -2 -3.94457 -2.70777 -0.93112 0 -7.5 12.5 -1.16475e-18 -1.55301e-18 1.59028e-15 0 2.77556e-17 4 1.16264 -1.07274 -57.8118 -12.5 -1.42109e-14 0 -0.962449 -3.50582 25.8099 8.88178e-16 -45.2616 -1 -0.00442861 3.83838 -0.563831 1.77636e-15 -41.2384 -2 2.41689 -1.07933 -11.8622 8.88178e-16 -7.5 12.5 1.55301e-18 -1.55301e-18 -9.54166e-15 0 0 4 -2.96179 -0.687152 -26.8247 
